<svg xmlns="http://www.w3.org/2000/svg" xmlns:xlink="http://www.w3.org/1999/xlink" width="118" zoomAndPan="magnify" viewBox="0 0 375 374.999991" height="118" preserveAspectRatio="xMidYMid meet" version="1.0"><defs><filter x="0%" y="0%" width="100%" height="100%" id="5396e8751f"><feColorMatrix values="0 0 0 0 1 0 0 0 0 1 0 0 0 0 1 0 0 0 1 0" color-interpolation-filters="sRGB"/></filter><g/><mask id="1bf332ec78"><g filter="url(#5396e8751f)"><rect x="-37.5" width="450" fill="#000000" y="-37.499999" height="449.999989" fill-opacity="0.349"/></g></mask><clipPath id="e34b162529"><path d="M 0 0 L 375 0 L 375 375 L 0 375 Z M 0 0 " clip-rule="nonzero"/></clipPath><clipPath id="8eb690f3bd"><path d="M 187.5 0 C 83.945312 0 0 83.945312 0 187.5 C 0 291.054688 83.945312 375 187.5 375 C 291.054688 375 375 291.054688 375 187.5 C 375 83.945312 291.054688 0 187.5 0 " clip-rule="nonzero"/></clipPath><clipPath id="4f7cab3a0c"><rect x="0" width="375" y="0" height="375"/></clipPath><mask id="5fe00e0c76"><g filter="url(#5396e8751f)"><rect x="-37.5" width="450" fill="#000000" y="-37.499999" height="449.999989" fill-opacity="0.549"/></g></mask><clipPath id="f6a3eb3dee"><path d="M 1.121094 1.121094 L 337.878906 1.121094 L 337.878906 337.878906 L 1.121094 337.878906 Z M 1.121094 1.121094 " clip-rule="nonzero"/></clipPath><clipPath id="06191979af"><path d="M 169.5 1.121094 C 76.507812 1.121094 1.121094 76.507812 1.121094 169.5 C 1.121094 262.492188 76.507812 337.878906 169.5 337.878906 C 262.492188 337.878906 337.878906 262.492188 337.878906 169.5 C 337.878906 76.507812 262.492188 1.121094 169.5 1.121094 " clip-rule="nonzero"/></clipPath><clipPath id="899be06f71"><rect x="0" width="338" y="0" height="338"/></clipPath><mask id="d62b77d14d"><g filter="url(#5396e8751f)"><rect x="-37.5" width="450" fill="#000000" y="-37.499999" height="449.999989" fill-opacity="0.749"/></g></mask><clipPath id="020ee5c1a1"><path d="M 0.800781 0.800781 L 276.199219 0.800781 L 276.199219 276.199219 L 0.800781 276.199219 Z M 0.800781 0.800781 " clip-rule="nonzero"/></clipPath><clipPath id="addc5f91c1"><path d="M 138.5 0.800781 C 62.449219 0.800781 0.800781 62.449219 0.800781 138.5 C 0.800781 214.550781 62.449219 276.199219 138.5 276.199219 C 214.550781 276.199219 276.199219 214.550781 276.199219 138.5 C 276.199219 62.449219 214.550781 0.800781 138.5 0.800781 " clip-rule="nonzero"/></clipPath><clipPath id="cefa5aaf39"><rect x="0" width="277" y="0" height="277"/></clipPath><clipPath id="a6c9f42aa6"><path d="M 182 90.136719 L 230 90.136719 L 230 138 L 182 138 Z M 182 90.136719 " clip-rule="nonzero"/></clipPath><clipPath id="3f20678c4e"><path d="M 109.578125 249 L 111 249 L 111 251 L 109.578125 251 Z M 109.578125 249 " clip-rule="nonzero"/></clipPath><clipPath id="e98d995480"><path d="M 109.578125 251 L 111 251 L 111 253 L 109.578125 253 Z M 109.578125 251 " clip-rule="nonzero"/></clipPath></defs><g mask="url(#1bf332ec78)"><g transform="matrix(1, 0, 0, 1, 0, 0)"><g clip-path="url(#4f7cab3a0c)"><g clip-path="url(#e34b162529)"><g clip-path="url(#8eb690f3bd)"><rect x="-82.5" width="540" fill="#0cc0df" height="539.999987" y="-82.499998" fill-opacity="1"/></g></g></g></g></g><g mask="url(#5fe00e0c76)"><g transform="matrix(1, 0, 0, 1, 18, 18)"><g clip-path="url(#899be06f71)"><g clip-path="url(#f6a3eb3dee)"><g clip-path="url(#06191979af)"><path fill="#0cc0df" d="M 1.121094 1.121094 L 337.878906 1.121094 L 337.878906 337.878906 L 1.121094 337.878906 Z M 1.121094 1.121094 " fill-opacity="1" fill-rule="nonzero"/></g></g></g></g></g><g mask="url(#d62b77d14d)"><g transform="matrix(1, 0, 0, 1, 49, 49)"><g clip-path="url(#cefa5aaf39)"><g clip-path="url(#020ee5c1a1)"><g clip-path="url(#addc5f91c1)"><path fill="#0cc0df" d="M 0.800781 0.800781 L 276.199219 0.800781 L 276.199219 276.199219 L 0.800781 276.199219 Z M 0.800781 0.800781 " fill-opacity="1" fill-rule="nonzero"/></g></g></g></g></g><path fill="#000000" d="M 204.066406 182.808594 L 197.222656 182.808594 C 196.855469 182.808594 196.554688 182.511719 196.554688 182.144531 C 196.554688 181.777344 196.855469 181.480469 197.222656 181.480469 L 204.066406 181.480469 C 204.433594 181.480469 204.734375 181.777344 204.734375 182.144531 C 204.734375 182.511719 204.433594 182.808594 204.066406 182.808594 Z M 204.066406 182.808594 " fill-opacity="1" fill-rule="nonzero"/><path fill="#000000" d="M 229.695312 182.808594 L 210.710938 182.808594 C 210.34375 182.808594 210.042969 182.511719 210.042969 182.144531 C 210.042969 181.777344 210.34375 181.480469 210.710938 181.480469 L 229.695312 181.480469 C 230.0625 181.480469 230.363281 181.777344 230.363281 182.144531 C 230.363281 182.511719 230.0625 182.808594 229.695312 182.808594 Z M 229.695312 182.808594 " fill-opacity="1" fill-rule="nonzero"/><path fill="#000000" d="M 222.613281 192.894531 L 210.710938 192.894531 C 210.34375 192.894531 210.042969 192.597656 210.042969 192.230469 C 210.042969 191.863281 210.34375 191.566406 210.710938 191.566406 L 222.613281 191.566406 C 222.980469 191.566406 223.28125 191.863281 223.28125 192.230469 C 223.28125 192.597656 222.980469 192.894531 222.613281 192.894531 Z M 222.613281 192.894531 " fill-opacity="1" fill-rule="nonzero"/><path fill="#000000" d="M 246.554688 192.894531 L 229.4375 192.894531 C 229.070312 192.894531 228.769531 192.597656 228.769531 192.230469 C 228.769531 191.863281 229.070312 191.566406 229.4375 191.566406 L 246.554688 191.566406 C 246.921875 191.566406 247.222656 191.863281 247.222656 192.230469 C 247.222656 192.597656 246.921875 192.894531 246.554688 192.894531 Z M 246.554688 192.894531 " fill-opacity="1" fill-rule="nonzero"/><path fill="#000000" d="M 232.628906 202.980469 L 210.808594 202.980469 C 210.441406 202.980469 210.144531 202.679688 210.144531 202.316406 C 210.144531 201.949219 210.441406 201.648438 210.808594 201.648438 L 232.628906 201.648438 C 233 201.648438 233.296875 201.949219 233.296875 202.316406 C 233.296875 202.679688 233 202.980469 232.628906 202.980469 Z M 232.628906 202.980469 " fill-opacity="1" fill-rule="nonzero"/><path fill="#000000" d="M 246.554688 202.980469 L 240.527344 202.980469 C 240.15625 202.980469 239.859375 202.679688 239.859375 202.316406 C 239.859375 201.949219 240.15625 201.648438 240.527344 201.648438 L 246.554688 201.648438 C 246.921875 201.648438 247.222656 201.949219 247.222656 202.316406 C 247.222656 202.679688 246.921875 202.980469 246.554688 202.980469 Z M 246.554688 202.980469 " fill-opacity="1" fill-rule="nonzero"/><path fill="#000000" d="M 217.554688 213.0625 L 210.710938 213.0625 C 210.34375 213.0625 210.042969 212.765625 210.042969 212.398438 C 210.042969 212.03125 210.34375 211.734375 210.710938 211.734375 L 217.554688 211.734375 C 217.921875 211.734375 218.222656 212.03125 218.222656 212.398438 C 218.222656 212.765625 217.921875 213.0625 217.554688 213.0625 Z M 217.554688 213.0625 " fill-opacity="1" fill-rule="nonzero"/><path fill="#000000" d="M 243.183594 213.0625 L 224.199219 213.0625 C 223.832031 213.0625 223.53125 212.765625 223.53125 212.398438 C 223.53125 212.03125 223.832031 211.734375 224.199219 211.734375 L 243.183594 211.734375 C 243.550781 211.734375 243.851562 212.03125 243.851562 212.398438 C 243.851562 212.765625 243.550781 213.0625 243.183594 213.0625 Z M 243.183594 213.0625 " fill-opacity="1" fill-rule="nonzero"/><path fill="#000000" d="M 222.613281 162.640625 L 210.710938 162.640625 C 210.34375 162.640625 210.042969 162.34375 210.042969 161.976562 C 210.042969 161.609375 210.34375 161.3125 210.710938 161.3125 L 222.613281 161.3125 C 222.980469 161.3125 223.28125 161.609375 223.28125 161.976562 C 223.28125 162.34375 222.980469 162.640625 222.613281 162.640625 Z M 222.613281 162.640625 " fill-opacity="1" fill-rule="nonzero"/><path fill="#000000" d="M 232.628906 172.726562 L 210.808594 172.726562 C 210.441406 172.726562 210.144531 172.429688 210.144531 172.0625 C 210.144531 171.695312 210.441406 171.394531 210.808594 171.394531 L 232.628906 171.394531 C 233 171.394531 233.296875 171.695312 233.296875 172.0625 C 233.296875 172.429688 233 172.726562 232.628906 172.726562 Z M 232.628906 172.726562 " fill-opacity="1" fill-rule="nonzero"/><path fill="#000000" d="M 148.449219 124.269531 C 148.449219 124.503906 148.40625 124.730469 148.328125 124.945312 C 148.246094 125.160156 148.128906 125.351562 147.976562 125.519531 C 147.824219 125.683594 147.648438 125.8125 147.453125 125.902344 C 147.253906 125.988281 147.046875 126.035156 146.835938 126.035156 C 146.621094 126.035156 146.414062 125.988281 146.214844 125.902344 C 146.019531 125.8125 145.84375 125.683594 145.691406 125.519531 C 145.542969 125.351562 145.425781 125.160156 145.34375 124.945312 C 145.261719 124.730469 145.21875 124.503906 145.21875 124.269531 C 145.21875 124.035156 145.261719 123.8125 145.34375 123.59375 C 145.425781 123.378906 145.542969 123.1875 145.691406 123.023438 C 145.84375 122.855469 146.019531 122.730469 146.214844 122.640625 C 146.414062 122.550781 146.621094 122.507812 146.835938 122.507812 C 147.046875 122.507812 147.253906 122.550781 147.453125 122.640625 C 147.648438 122.730469 147.824219 122.855469 147.976562 123.023438 C 148.128906 123.1875 148.246094 123.378906 148.328125 123.59375 C 148.40625 123.8125 148.449219 124.035156 148.449219 124.269531 Z M 148.449219 124.269531 " fill-opacity="1" fill-rule="nonzero"/><path fill="#000000" d="M 159.230469 124.269531 C 159.230469 124.503906 159.191406 124.730469 159.109375 124.945312 C 159.027344 125.160156 158.910156 125.351562 158.757812 125.519531 C 158.609375 125.683594 158.433594 125.8125 158.234375 125.902344 C 158.039062 125.988281 157.832031 126.035156 157.617188 126.035156 C 157.402344 126.035156 157.199219 125.988281 157 125.902344 C 156.800781 125.8125 156.628906 125.683594 156.476562 125.519531 C 156.324219 125.351562 156.207031 125.160156 156.125 124.945312 C 156.042969 124.730469 156.003906 124.503906 156.003906 124.269531 C 156.003906 124.035156 156.042969 123.8125 156.125 123.59375 C 156.207031 123.378906 156.324219 123.1875 156.476562 123.023438 C 156.628906 122.855469 156.800781 122.730469 157 122.640625 C 157.199219 122.550781 157.402344 122.507812 157.617188 122.507812 C 157.832031 122.507812 158.039062 122.550781 158.234375 122.640625 C 158.433594 122.730469 158.609375 122.855469 158.757812 123.023438 C 158.910156 123.1875 159.027344 123.378906 159.109375 123.59375 C 159.191406 123.8125 159.230469 124.035156 159.230469 124.269531 Z M 159.230469 124.269531 " fill-opacity="1" fill-rule="nonzero"/><path fill="#000000" d="M 152.226562 131.148438 C 150.632812 131.148438 149.335938 129.863281 149.335938 128.277344 L 149.335938 127.75 C 149.335938 127.382812 149.636719 127.085938 150.003906 127.085938 C 150.371094 127.085938 150.671875 127.382812 150.671875 127.75 L 150.671875 128.277344 C 150.671875 129.128906 151.367188 129.820312 152.226562 129.820312 C 153.082031 129.820312 153.78125 129.128906 153.78125 128.277344 L 153.78125 127.75 C 153.78125 127.382812 154.078125 127.085938 154.449219 127.085938 C 154.816406 127.085938 155.113281 127.382812 155.113281 127.75 L 155.113281 128.277344 C 155.113281 129.863281 153.820312 131.148438 152.226562 131.148438 Z M 152.226562 131.148438 " fill-opacity="1" fill-rule="nonzero"/><path fill="#000000" d="M 258.515625 218.570312 C 258.515625 218.789062 258.476562 219.003906 258.390625 219.207031 C 258.304688 219.410156 258.183594 219.589844 258.027344 219.746094 C 257.871094 219.902344 257.691406 220.023438 257.488281 220.105469 C 257.285156 220.191406 257.070312 220.234375 256.851562 220.234375 C 256.628906 220.234375 256.417969 220.191406 256.210938 220.105469 C 256.007812 220.023438 255.828125 219.902344 255.671875 219.746094 C 255.515625 219.589844 255.394531 219.410156 255.308594 219.207031 C 255.226562 219.003906 255.183594 218.789062 255.183594 218.570312 C 255.183594 218.351562 255.226562 218.136719 255.308594 217.933594 C 255.394531 217.730469 255.515625 217.550781 255.671875 217.394531 C 255.828125 217.238281 256.007812 217.117188 256.210938 217.035156 C 256.417969 216.949219 256.628906 216.90625 256.851562 216.90625 C 257.070312 216.90625 257.285156 216.949219 257.488281 217.035156 C 257.691406 217.117188 257.871094 217.238281 258.027344 217.394531 C 258.183594 217.550781 258.304688 217.730469 258.390625 217.933594 C 258.476562 218.136719 258.515625 218.351562 258.515625 218.570312 Z M 258.515625 218.570312 " fill-opacity="1" fill-rule="nonzero"/><path fill="#000000" d="M 264.417969 146.585938 L 259.921875 145.925781 C 259.597656 144.851562 259.167969 143.8125 258.640625 142.820312 L 261.363281 139.144531 C 261.558594 138.882812 261.53125 138.515625 261.300781 138.28125 L 255.980469 132.925781 C 255.746094 132.691406 255.375 132.664062 255.105469 132.863281 L 251.464844 135.597656 C 250.484375 135.070312 249.453125 134.640625 248.386719 134.3125 L 247.734375 129.78125 C 247.683594 129.453125 247.40625 129.210938 247.074219 129.210938 L 239.550781 129.210938 C 239.21875 129.210938 238.9375 129.453125 238.890625 129.78125 L 238.234375 134.3125 C 237.171875 134.640625 236.140625 135.070312 235.15625 135.597656 L 231.515625 132.863281 C 231.25 132.664062 230.875 132.691406 230.640625 132.925781 L 225.320312 138.28125 C 225.089844 138.515625 225.0625 138.882812 225.257812 139.144531 L 226.738281 141.144531 L 174.792969 141.144531 C 174.425781 141.144531 174.128906 141.441406 174.128906 141.808594 C 174.128906 142.175781 174.425781 142.472656 174.792969 142.472656 L 186.320312 142.472656 L 186.320312 212.605469 C 186.320312 212.972656 186.621094 213.273438 186.988281 213.273438 C 187.355469 213.273438 187.65625 212.972656 187.65625 212.605469 L 187.65625 142.472656 L 227.722656 142.472656 L 227.980469 142.820312 C 227.457031 143.808594 227.027344 144.851562 226.703125 145.925781 L 222.203125 146.585938 C 221.875 146.632812 221.632812 146.914062 221.632812 147.242188 L 221.632812 151.226562 L 210.710938 151.226562 C 210.34375 151.226562 210.042969 151.523438 210.042969 151.890625 C 210.042969 152.257812 210.34375 152.558594 210.710938 152.558594 L 221.632812 152.558594 L 221.632812 154.816406 C 221.632812 155.148438 221.875 155.425781 222.203125 155.476562 L 226.703125 156.132812 C 227.027344 157.207031 227.457031 158.25 227.980469 159.242188 L 225.257812 162.914062 C 225.0625 163.179688 225.089844 163.546875 225.320312 163.777344 L 230.640625 169.136719 C 230.875 169.371094 231.25 169.398438 231.515625 169.199219 L 235.15625 166.464844 C 236.140625 166.988281 237.171875 167.417969 238.234375 167.746094 L 238.890625 172.28125 C 238.9375 172.605469 239.21875 172.851562 239.550781 172.851562 L 247.074219 172.851562 C 247.40625 172.851562 247.6875 172.605469 247.734375 172.28125 L 248.386719 167.746094 C 249.453125 167.417969 250.484375 166.988281 251.464844 166.464844 L 255.105469 169.199219 C 255.375 169.398438 255.75 169.371094 255.980469 169.136719 L 256.183594 168.933594 L 256.183594 212.605469 C 256.183594 212.972656 256.484375 213.273438 256.851562 213.273438 C 257.21875 213.273438 257.519531 212.972656 257.519531 212.605469 L 257.519531 167.589844 L 261.300781 163.777344 C 261.535156 163.546875 261.558594 163.179688 261.363281 162.914062 L 258.644531 159.242188 C 259.167969 158.25 259.597656 157.207031 259.921875 156.132812 L 264.417969 155.476562 C 264.746094 155.429688 264.988281 155.148438 264.988281 154.816406 L 264.988281 147.242188 C 264.988281 146.914062 264.746094 146.632812 264.417969 146.585938 Z M 243.3125 162.234375 C 237.152344 162.234375 232.140625 157.207031 232.140625 151.03125 C 232.140625 144.851562 237.152344 139.824219 243.3125 139.824219 C 249.472656 139.824219 254.484375 144.851562 254.484375 151.03125 C 254.484375 157.207031 249.472656 162.234375 243.3125 162.234375 Z M 243.3125 162.234375 " fill-opacity="1" fill-rule="nonzero"/><path fill="#000000" d="M 239.675781 154.667969 C 239.539062 154.667969 239.398438 154.625 239.277344 154.535156 L 235.273438 151.5625 C 234.917969 151.316406 234.917969 150.746094 235.273438 150.496094 L 239.277344 147.523438 C 239.574219 147.304688 239.992188 147.367188 240.210938 147.660156 C 240.429688 147.953125 240.371094 148.371094 240.074219 148.589844 L 236.789062 151.03125 L 240.074219 153.46875 C 240.59375 153.828125 240.292969 154.691406 239.675781 154.667969 Z M 239.675781 154.667969 " fill-opacity="1" fill-rule="nonzero"/><path fill="#000000" d="M 246.945312 154.667969 C 246.332031 154.691406 246.03125 153.824219 246.546875 153.46875 L 249.835938 151.03125 L 246.546875 148.589844 C 246.253906 148.371094 246.191406 147.957031 246.410156 147.660156 C 246.632812 147.367188 247.050781 147.304688 247.34375 147.523438 L 251.351562 150.496094 C 251.707031 150.746094 251.707031 151.316406 251.351562 151.5625 L 247.34375 154.535156 C 247.226562 154.625 247.085938 154.667969 246.945312 154.667969 Z M 246.945312 154.667969 " fill-opacity="1" fill-rule="nonzero"/><path fill="#000000" d="M 242.605469 154.6875 C 242.183594 154.691406 241.855469 154.28125 241.957031 153.871094 L 243.367188 147.886719 C 243.453125 147.527344 243.8125 147.308594 244.167969 147.390625 C 244.527344 147.476562 244.75 147.832031 244.664062 148.191406 L 243.253906 154.175781 C 243.183594 154.480469 242.910156 154.6875 242.605469 154.6875 Z M 242.605469 154.6875 " fill-opacity="1" fill-rule="nonzero"/><path fill="#000000" d="M 204.066406 151.226562 L 197.222656 151.226562 C 196.855469 151.226562 196.554688 151.523438 196.554688 151.890625 C 196.554688 152.257812 196.855469 152.558594 197.222656 152.558594 L 204.066406 152.558594 C 204.433594 152.558594 204.734375 152.257812 204.734375 151.890625 C 204.734375 151.523438 204.433594 151.226562 204.066406 151.226562 Z M 204.066406 151.226562 " fill-opacity="1" fill-rule="nonzero"/><path fill="#000000" d="M 202.238281 120.84375 L 201.441406 120.84375 C 200.046875 120.84375 198.910156 119.679688 198.910156 118.253906 L 198.910156 115.734375 L 197.539062 114.324219 C 197.289062 114.066406 197.289062 113.65625 197.539062 113.398438 L 198.910156 111.988281 L 198.910156 109.46875 C 198.910156 108.042969 200.042969 106.878906 201.441406 106.878906 L 202.238281 106.878906 C 202.605469 106.878906 202.902344 107.179688 202.902344 107.546875 C 202.902344 107.910156 202.605469 108.210938 202.238281 108.210938 L 201.441406 108.210938 C 200.78125 108.210938 200.242188 108.777344 200.242188 109.46875 L 200.242188 112.257812 C 200.242188 112.429688 200.175781 112.59375 200.054688 112.71875 L 198.945312 113.863281 L 200.054688 115.003906 C 200.175781 115.128906 200.242188 115.292969 200.242188 115.46875 L 200.242188 118.253906 C 200.242188 118.949219 200.78125 119.515625 201.441406 119.515625 L 202.238281 119.515625 C 202.605469 119.515625 202.902344 119.8125 202.902344 120.179688 C 202.902344 120.546875 202.605469 120.84375 202.238281 120.84375 Z M 202.238281 120.84375 " fill-opacity="1" fill-rule="nonzero"/><path fill="#000000" d="M 210.324219 120.84375 L 209.53125 120.84375 C 209.164062 120.84375 208.863281 120.546875 208.863281 120.179688 C 208.863281 119.8125 209.164062 119.515625 209.53125 119.515625 L 210.324219 119.515625 C 210.988281 119.515625 211.523438 118.949219 211.523438 118.253906 L 211.523438 115.46875 C 211.523438 115.292969 211.59375 115.128906 211.710938 115.003906 L 212.820312 113.863281 L 211.710938 112.71875 C 211.59375 112.59375 211.523438 112.429688 211.523438 112.257812 L 211.523438 109.46875 C 211.523438 108.773438 210.988281 108.210938 210.324219 108.210938 L 209.53125 108.210938 C 209.164062 108.210938 208.863281 107.910156 208.863281 107.542969 C 208.863281 107.175781 209.164062 106.878906 209.53125 106.878906 L 210.324219 106.878906 C 211.722656 106.878906 212.859375 108.042969 212.859375 109.46875 L 212.859375 111.988281 L 214.226562 113.398438 C 214.476562 113.65625 214.476562 114.066406 214.226562 114.324219 L 212.859375 115.734375 L 212.859375 118.253906 C 212.859375 119.679688 211.722656 120.84375 210.324219 120.84375 Z M 210.324219 120.84375 " fill-opacity="1" fill-rule="nonzero"/><path fill="#000000" d="M 206.972656 113.863281 C 206.972656 114.011719 206.945312 114.152344 206.890625 114.292969 C 206.835938 114.429688 206.757812 114.550781 206.652344 114.65625 C 206.550781 114.761719 206.433594 114.84375 206.300781 114.898438 C 206.167969 114.957031 206.027344 114.984375 205.882812 114.984375 C 205.738281 114.984375 205.601562 114.957031 205.46875 114.898438 C 205.332031 114.84375 205.214844 114.761719 205.113281 114.65625 C 205.011719 114.550781 204.933594 114.429688 204.878906 114.292969 C 204.824219 114.152344 204.796875 114.011719 204.796875 113.863281 C 204.796875 113.710938 204.824219 113.570312 204.878906 113.433594 C 204.933594 113.292969 205.011719 113.171875 205.113281 113.066406 C 205.214844 112.960938 205.332031 112.878906 205.46875 112.824219 C 205.601562 112.765625 205.738281 112.738281 205.882812 112.738281 C 206.027344 112.738281 206.167969 112.765625 206.300781 112.824219 C 206.433594 112.878906 206.550781 112.960938 206.652344 113.066406 C 206.757812 113.171875 206.835938 113.292969 206.890625 113.433594 C 206.945312 113.570312 206.972656 113.710938 206.972656 113.863281 Z M 206.972656 113.863281 " fill-opacity="1" fill-rule="nonzero"/><path fill="#000000" d="M 202.929688 113.863281 C 202.929688 114.082031 202.851562 114.273438 202.699219 114.429688 C 202.546875 114.585938 202.367188 114.664062 202.152344 114.664062 C 201.9375 114.664062 201.753906 114.585938 201.601562 114.429688 C 201.449219 114.273438 201.371094 114.082031 201.371094 113.863281 C 201.371094 113.640625 201.449219 113.449219 201.601562 113.292969 C 201.753906 113.136719 201.9375 113.058594 202.152344 113.058594 C 202.367188 113.058594 202.546875 113.136719 202.699219 113.292969 C 202.851562 113.449219 202.929688 113.640625 202.929688 113.863281 Z M 202.929688 113.863281 " fill-opacity="1" fill-rule="nonzero"/><path fill="#000000" d="M 210.394531 113.863281 C 210.394531 114.082031 210.320312 114.273438 210.167969 114.429688 C 210.015625 114.585938 209.832031 114.664062 209.617188 114.664062 C 209.402344 114.664062 209.21875 114.585938 209.066406 114.429688 C 208.914062 114.273438 208.839844 114.082031 208.839844 113.863281 C 208.839844 113.640625 208.914062 113.449219 209.066406 113.292969 C 209.21875 113.136719 209.402344 113.058594 209.617188 113.058594 C 209.832031 113.058594 210.015625 113.136719 210.167969 113.292969 C 210.320312 113.449219 210.394531 113.640625 210.394531 113.863281 Z M 210.394531 113.863281 " fill-opacity="1" fill-rule="nonzero"/><g clip-path="url(#a6c9f42aa6)"><path fill="#000000" d="M 228.824219 109.074219 L 223.898438 108.351562 C 223.542969 107.160156 223.066406 106.003906 222.484375 104.90625 L 225.464844 100.871094 C 225.660156 100.605469 225.632812 100.242188 225.402344 100.007812 L 219.621094 94.167969 C 219.382812 93.933594 219.011719 93.90625 218.742188 94.105469 L 214.753906 97.109375 C 213.667969 96.523438 212.527344 96.046875 211.351562 95.6875 L 210.632812 90.707031 C 210.585938 90.378906 210.304688 90.136719 209.972656 90.136719 L 201.792969 90.136719 C 201.460938 90.136719 201.179688 90.378906 201.132812 90.707031 L 200.417969 95.6875 C 199.238281 96.046875 198.097656 96.523438 197.011719 97.109375 L 193.023438 94.105469 C 192.757812 93.90625 192.382812 93.933594 192.148438 94.171875 L 186.363281 100.007812 C 186.132812 100.242188 186.105469 100.605469 186.300781 100.871094 L 189.285156 104.90625 C 188.699219 106.003906 188.226562 107.160156 187.867188 108.351562 L 182.941406 109.074219 C 182.613281 109.125 182.371094 109.402344 182.371094 109.734375 L 182.371094 117.992188 C 182.371094 118.320312 182.613281 118.601562 182.941406 118.648438 L 187.867188 119.371094 C 188.226562 120.566406 188.699219 121.71875 189.285156 122.820312 L 186.300781 126.855469 C 186.105469 127.117188 186.132812 127.484375 186.363281 127.714844 L 192.148438 133.554688 C 192.382812 133.792969 192.757812 133.820312 193.023438 133.617188 L 197.011719 130.613281 C 198.097656 131.199219 199.238281 131.675781 200.417969 132.039062 L 201.132812 137.015625 C 201.179688 137.34375 201.460938 137.585938 201.792969 137.585938 L 209.972656 137.585938 C 210.304688 137.585938 210.585938 137.34375 210.632812 137.015625 L 211.351562 132.039062 C 212.527344 131.675781 213.667969 131.199219 214.753906 130.613281 L 218.742188 133.617188 C 219.011719 133.820312 219.382812 133.792969 219.621094 133.554688 L 225.402344 127.714844 C 225.632812 127.484375 225.660156 127.117188 225.464844 126.855469 L 222.484375 122.820312 C 223.066406 121.71875 223.542969 120.566406 223.898438 119.371094 L 228.824219 118.648438 C 229.152344 118.601562 229.394531 118.320312 229.394531 117.992188 L 229.394531 109.734375 C 229.394531 109.402344 229.152344 109.125 228.824219 109.074219 Z M 218.046875 113.863281 C 218.046875 120.460938 212.589844 125.832031 205.882812 125.832031 C 199.179688 125.832031 193.722656 120.460938 193.722656 113.863281 C 193.722656 107.261719 199.175781 101.894531 205.882812 101.894531 C 212.589844 101.894531 218.046875 107.261719 218.046875 113.863281 Z M 218.046875 113.863281 " fill-opacity="1" fill-rule="nonzero"/></g><path fill="#000000" d="M 262.9375 225.242188 L 187.757812 225.242188 C 187.492188 223.796875 186.503906 220.097656 183.175781 217.710938 C 180.292969 215.636719 176.417969 215.097656 171.652344 216.105469 C 170.472656 214.917969 165.691406 210.632812 159.617188 212.28125 L 159.617188 188.257812 L 164.550781 188.257812 C 164.84375 188.257812 165.105469 188.066406 165.191406 187.789062 C 165.199219 187.761719 165.359375 187.226562 165.617188 186.265625 C 168.117188 187.753906 172.527344 191.660156 173.257812 200.882812 C 173.285156 201.5 174.15625 201.722656 174.480469 201.195312 C 174.625 200.972656 178.074219 195.640625 179.214844 187.84375 C 180.265625 180.679688 179.449219 170.058594 169.683594 160.011719 C 169.710938 159.390625 169.734375 158.761719 169.753906 158.128906 C 170.019531 148.648438 169.015625 140.058594 166.765625 132.597656 C 166.761719 132.59375 166.761719 132.589844 166.761719 132.589844 C 163.921875 123.175781 159.082031 115.542969 152.375 109.910156 C 152.125 109.699219 151.761719 109.699219 151.515625 109.910156 C 144.8125 115.539062 139.972656 123.164062 137.128906 132.574219 C 137.128906 132.582031 137.128906 132.589844 137.125 132.597656 C 134.875 140.058594 133.867188 148.648438 134.136719 158.128906 C 134.152344 158.761719 134.179688 159.390625 134.207031 160.011719 C 124.4375 170.058594 123.621094 180.679688 124.671875 187.84375 C 125.816406 195.640625 129.261719 200.972656 129.40625 201.195312 C 129.730469 201.726562 130.601562 201.5 130.632812 200.886719 C 131.359375 191.660156 135.769531 187.753906 138.269531 186.269531 C 138.527344 187.226562 138.691406 187.761719 138.699219 187.789062 C 138.785156 188.066406 139.042969 188.257812 139.335938 188.257812 L 143.96875 188.257812 L 143.96875 212.324219 C 138.167969 210.972656 133.894531 214.933594 132.789062 216.101562 C 128.03125 215.097656 124.160156 215.636719 121.277344 217.710938 C 119.683594 218.851562 118.632812 220.296875 117.933594 221.648438 L 117.933594 148.457031 C 117.933594 145.15625 120.628906 142.472656 123.9375 142.472656 L 129.042969 142.472656 C 129.410156 142.472656 129.710938 142.175781 129.710938 141.808594 C 129.710938 141.441406 129.410156 141.144531 129.042969 141.144531 L 123.9375 141.144531 C 119.890625 141.144531 116.597656 144.425781 116.597656 148.457031 L 116.597656 225.242188 L 111.179688 225.242188 C 110.8125 225.242188 110.511719 225.539062 110.511719 225.90625 L 110.511719 235.296875 C 110.511719 241.164062 115.300781 245.9375 121.183594 245.9375 L 252.933594 245.9375 C 258.816406 245.9375 263.605469 241.164062 263.605469 235.296875 L 263.605469 225.90625 C 263.605469 225.539062 263.304688 225.242188 262.9375 225.242188 Z M 172.445312 226.570312 L 201.671875 226.570312 L 201.671875 230.066406 C 201.671875 232.265625 199.875 234.054688 197.667969 234.054688 L 176.445312 234.054688 C 174.238281 234.054688 172.445312 232.265625 172.445312 230.066406 Z M 151.945312 111.292969 C 158.070312 116.589844 162.554688 123.65625 165.28125 132.3125 C 154.558594 135.042969 144.992188 133.871094 138.613281 132.292969 C 141.339844 123.644531 145.820312 116.582031 151.945312 111.292969 Z M 139.835938 186.929688 C 139.179688 185.535156 135.4375 168.480469 135.46875 158.0625 C 135.261719 150.707031 135.820312 141.996094 138.273438 133.578125 C 141.972656 134.496094 146.714844 135.277344 152.128906 135.277344 C 156.285156 135.277344 160.839844 134.816406 165.621094 133.597656 C 168.066406 142.011719 168.625 150.714844 168.417969 158.0625 C 168.4375 168.566406 164.722656 185.453125 164.050781 186.929688 L 156.792969 186.890625 C 156.683594 179.152344 155.007812 171.546875 151.917969 171.546875 C 148.828125 171.546875 147.152344 179.152344 147.042969 186.890625 Z M 145.300781 216.398438 L 145.300781 213.191406 C 145.300781 213.191406 145.300781 213.191406 145.300781 213.1875 L 145.300781 188.257812 L 147.039062 188.257812 C 147.113281 196.101562 148.789062 203.859375 151.917969 203.859375 C 155.050781 203.859375 156.722656 196.101562 156.796875 188.257812 L 158.28125 188.257812 L 158.28125 213.09375 C 158.277344 213.128906 158.269531 213.160156 158.269531 213.195312 L 158.269531 216.398438 C 158.320312 217.5 159.007812 218.847656 160.089844 219.535156 L 143.480469 219.535156 C 144.523438 218.855469 145.230469 217.648438 145.300781 216.398438 Z M 262.269531 235.296875 C 262.269531 240.429688 258.082031 244.605469 252.933594 244.605469 L 121.183594 244.605469 C 116.035156 244.605469 111.847656 240.429688 111.847656 235.296875 L 111.847656 226.570312 L 171.109375 226.570312 L 171.109375 230.066406 C 171.109375 233 173.503906 235.386719 176.445312 235.386719 L 197.667969 235.386719 C 200.613281 235.386719 203.003906 233 203.003906 230.066406 L 203.003906 226.570312 L 262.269531 226.570312 Z M 262.269531 235.296875 " fill-opacity="1" fill-rule="nonzero"/><g clip-path="url(#3f20678c4e)"><g fill="#000000" fill-opacity="1"><g transform="translate(109.611026, 250.891443)"><g><path d="M 0.640625 -0.171875 C 0.785156 -0.171875 0.882812 -0.242188 0.9375 -0.390625 L 1.15625 -0.3125 C 1.101562 -0.195312 1.035156 -0.113281 0.953125 -0.0625 C 0.867188 -0.0078125 0.765625 0.015625 0.640625 0.015625 C 0.460938 0.015625 0.320312 -0.0351562 0.21875 -0.140625 C 0.113281 -0.242188 0.0625 -0.382812 0.0625 -0.5625 C 0.0625 -0.75 0.109375 -0.890625 0.203125 -0.984375 C 0.304688 -1.085938 0.445312 -1.140625 0.625 -1.140625 C 0.757812 -1.140625 0.867188 -1.113281 0.953125 -1.0625 C 1.035156 -1.007812 1.097656 -0.929688 1.140625 -0.828125 L 0.921875 -0.78125 C 0.910156 -0.832031 0.878906 -0.875 0.828125 -0.90625 C 0.773438 -0.9375 0.710938 -0.953125 0.640625 -0.953125 C 0.523438 -0.953125 0.441406 -0.921875 0.390625 -0.859375 C 0.335938 -0.796875 0.3125 -0.695312 0.3125 -0.5625 C 0.3125 -0.4375 0.335938 -0.335938 0.390625 -0.265625 C 0.453125 -0.203125 0.535156 -0.171875 0.640625 -0.171875 Z M 0.640625 -0.171875 "/></g></g></g></g><g fill="#000000" fill-opacity="1"><g transform="translate(110.80343, 250.891443)"><g><path d="M 0.109375 0 L 0.109375 -0.65625 C 0.109375 -0.707031 0.109375 -0.75 0.109375 -0.78125 C 0.109375 -0.8125 0.109375 -0.835938 0.109375 -0.859375 L 0.328125 -0.859375 C 0.328125 -0.859375 0.328125 -0.832031 0.328125 -0.78125 C 0.335938 -0.726562 0.34375 -0.695312 0.34375 -0.6875 C 0.363281 -0.738281 0.378906 -0.773438 0.390625 -0.796875 C 0.410156 -0.828125 0.429688 -0.847656 0.453125 -0.859375 C 0.484375 -0.878906 0.515625 -0.890625 0.546875 -0.890625 C 0.578125 -0.890625 0.601562 -0.882812 0.625 -0.875 L 0.625 -0.6875 C 0.582031 -0.695312 0.546875 -0.703125 0.515625 -0.703125 C 0.460938 -0.703125 0.421875 -0.675781 0.390625 -0.625 C 0.359375 -0.582031 0.34375 -0.515625 0.34375 -0.421875 L 0.34375 0 Z M 0.109375 0 "/></g></g></g><g fill="#000000" fill-opacity="1"><g transform="translate(111.445991, 250.891443)"><g><path d="M 0.46875 0.015625 C 0.34375 0.015625 0.242188 -0.0195312 0.171875 -0.09375 C 0.0976562 -0.175781 0.0625 -0.289062 0.0625 -0.4375 C 0.0625 -0.582031 0.0976562 -0.691406 0.171875 -0.765625 C 0.242188 -0.835938 0.347656 -0.875 0.484375 -0.875 C 0.609375 -0.875 0.703125 -0.832031 0.765625 -0.75 C 0.828125 -0.675781 0.859375 -0.554688 0.859375 -0.390625 L 0.296875 -0.390625 C 0.296875 -0.304688 0.3125 -0.242188 0.34375 -0.203125 C 0.375 -0.160156 0.421875 -0.140625 0.484375 -0.140625 C 0.566406 -0.140625 0.617188 -0.171875 0.640625 -0.234375 L 0.859375 -0.21875 C 0.796875 -0.0625 0.664062 0.015625 0.46875 0.015625 Z M 0.46875 -0.734375 C 0.414062 -0.734375 0.375 -0.710938 0.34375 -0.671875 C 0.320312 -0.640625 0.3125 -0.59375 0.3125 -0.53125 L 0.640625 -0.53125 C 0.640625 -0.601562 0.625 -0.65625 0.59375 -0.6875 C 0.5625 -0.71875 0.519531 -0.734375 0.46875 -0.734375 Z M 0.46875 -0.734375 "/></g></g></g><g fill="#000000" fill-opacity="1"><g transform="translate(112.364271, 250.891443)"><g><path d="M 0.3125 0.015625 C 0.226562 0.015625 0.160156 -0.00390625 0.109375 -0.046875 C 0.0664062 -0.0976562 0.046875 -0.164062 0.046875 -0.25 C 0.046875 -0.332031 0.0703125 -0.394531 0.125 -0.4375 C 0.1875 -0.488281 0.273438 -0.515625 0.390625 -0.515625 L 0.578125 -0.53125 L 0.578125 -0.5625 C 0.578125 -0.625 0.566406 -0.664062 0.546875 -0.6875 C 0.523438 -0.71875 0.492188 -0.734375 0.453125 -0.734375 C 0.410156 -0.734375 0.378906 -0.722656 0.359375 -0.703125 C 0.335938 -0.691406 0.328125 -0.660156 0.328125 -0.609375 L 0.09375 -0.625 C 0.101562 -0.707031 0.140625 -0.769531 0.203125 -0.8125 C 0.265625 -0.851562 0.351562 -0.875 0.46875 -0.875 C 0.570312 -0.875 0.65625 -0.847656 0.71875 -0.796875 C 0.78125 -0.742188 0.8125 -0.671875 0.8125 -0.578125 L 0.8125 -0.25 C 0.8125 -0.207031 0.816406 -0.175781 0.828125 -0.15625 C 0.835938 -0.132812 0.851562 -0.125 0.875 -0.125 C 0.894531 -0.125 0.914062 -0.128906 0.9375 -0.140625 L 0.9375 -0.015625 C 0.914062 -0.00390625 0.898438 0 0.890625 0 C 0.878906 0 0.867188 0 0.859375 0 C 0.847656 0 0.835938 0 0.828125 0 C 0.816406 0.0078125 0.800781 0.015625 0.78125 0.015625 C 0.726562 0.015625 0.6875 0 0.65625 -0.03125 C 0.632812 -0.0625 0.617188 -0.101562 0.609375 -0.15625 C 0.546875 -0.0390625 0.445312 0.015625 0.3125 0.015625 Z M 0.578125 -0.40625 L 0.46875 -0.40625 C 0.414062 -0.394531 0.375 -0.382812 0.34375 -0.375 C 0.320312 -0.375 0.304688 -0.363281 0.296875 -0.34375 C 0.285156 -0.320312 0.28125 -0.296875 0.28125 -0.265625 C 0.28125 -0.222656 0.289062 -0.191406 0.3125 -0.171875 C 0.332031 -0.148438 0.359375 -0.140625 0.390625 -0.140625 C 0.421875 -0.140625 0.453125 -0.148438 0.484375 -0.171875 C 0.515625 -0.191406 0.535156 -0.21875 0.546875 -0.25 C 0.566406 -0.28125 0.578125 -0.316406 0.578125 -0.359375 Z M 0.578125 -0.40625 "/></g></g></g><g fill="#000000" fill-opacity="1"><g transform="translate(113.282551, 250.891443)"><g><path d="M 0.34375 0.015625 C 0.269531 0.015625 0.210938 0 0.171875 -0.03125 C 0.140625 -0.0703125 0.125 -0.128906 0.125 -0.203125 L 0.125 -0.71875 L 0.015625 -0.71875 L 0.015625 -0.859375 L 0.140625 -0.859375 L 0.21875 -1.0625 L 0.359375 -1.0625 L 0.359375 -0.859375 L 0.515625 -0.859375 L 0.515625 -0.71875 L 0.359375 -0.71875 L 0.359375 -0.265625 C 0.359375 -0.222656 0.363281 -0.191406 0.375 -0.171875 C 0.394531 -0.148438 0.421875 -0.140625 0.453125 -0.140625 C 0.472656 -0.140625 0.5 -0.144531 0.53125 -0.15625 L 0.53125 -0.015625 C 0.476562 0.00390625 0.414062 0.015625 0.34375 0.015625 Z M 0.34375 0.015625 "/></g></g></g><g fill="#000000" fill-opacity="1"><g transform="translate(113.832394, 250.891443)"><g><path d="M 0.46875 0.015625 C 0.34375 0.015625 0.242188 -0.0195312 0.171875 -0.09375 C 0.0976562 -0.175781 0.0625 -0.289062 0.0625 -0.4375 C 0.0625 -0.582031 0.0976562 -0.691406 0.171875 -0.765625 C 0.242188 -0.835938 0.347656 -0.875 0.484375 -0.875 C 0.609375 -0.875 0.703125 -0.832031 0.765625 -0.75 C 0.828125 -0.675781 0.859375 -0.554688 0.859375 -0.390625 L 0.296875 -0.390625 C 0.296875 -0.304688 0.3125 -0.242188 0.34375 -0.203125 C 0.375 -0.160156 0.421875 -0.140625 0.484375 -0.140625 C 0.566406 -0.140625 0.617188 -0.171875 0.640625 -0.234375 L 0.859375 -0.21875 C 0.796875 -0.0625 0.664062 0.015625 0.46875 0.015625 Z M 0.46875 -0.734375 C 0.414062 -0.734375 0.375 -0.710938 0.34375 -0.671875 C 0.320312 -0.640625 0.3125 -0.59375 0.3125 -0.53125 L 0.640625 -0.53125 C 0.640625 -0.601562 0.625 -0.65625 0.59375 -0.6875 C 0.5625 -0.71875 0.519531 -0.734375 0.46875 -0.734375 Z M 0.46875 -0.734375 "/></g></g></g><g fill="#000000" fill-opacity="1"><g transform="translate(114.750674, 250.891443)"><g><path d="M 0.6875 0 C 0.675781 -0.0078125 0.671875 -0.03125 0.671875 -0.0625 C 0.671875 -0.09375 0.671875 -0.117188 0.671875 -0.140625 C 0.617188 -0.0351562 0.523438 0.015625 0.390625 0.015625 C 0.285156 0.015625 0.203125 -0.0195312 0.140625 -0.09375 C 0.0859375 -0.175781 0.0625 -0.289062 0.0625 -0.4375 C 0.0625 -0.570312 0.09375 -0.675781 0.15625 -0.75 C 0.21875 -0.832031 0.300781 -0.875 0.40625 -0.875 C 0.46875 -0.875 0.519531 -0.863281 0.5625 -0.84375 C 0.601562 -0.820312 0.640625 -0.785156 0.671875 -0.734375 L 0.671875 -1.1875 L 0.890625 -1.1875 L 0.890625 -0.1875 C 0.890625 -0.132812 0.894531 -0.0703125 0.90625 0 Z M 0.671875 -0.4375 C 0.671875 -0.53125 0.65625 -0.601562 0.625 -0.65625 C 0.59375 -0.707031 0.546875 -0.734375 0.484375 -0.734375 C 0.421875 -0.734375 0.375 -0.707031 0.34375 -0.65625 C 0.320312 -0.601562 0.3125 -0.53125 0.3125 -0.4375 C 0.3125 -0.238281 0.367188 -0.140625 0.484375 -0.140625 C 0.546875 -0.140625 0.59375 -0.164062 0.625 -0.21875 C 0.65625 -0.269531 0.671875 -0.34375 0.671875 -0.4375 Z M 0.671875 -0.4375 "/></g></g></g><g fill="#000000" fill-opacity="1"><g transform="translate(115.759279, 250.891443)"><g/></g></g><g fill="#000000" fill-opacity="1"><g transform="translate(116.218, 250.891443)"><g><path d="M 0.9375 -0.4375 C 0.9375 -0.289062 0.90625 -0.175781 0.84375 -0.09375 C 0.789062 -0.0195312 0.710938 0.015625 0.609375 0.015625 C 0.546875 0.015625 0.488281 0.00390625 0.4375 -0.015625 C 0.394531 -0.046875 0.363281 -0.0859375 0.34375 -0.140625 C 0.34375 -0.117188 0.335938 -0.09375 0.328125 -0.0625 C 0.328125 -0.03125 0.328125 -0.0078125 0.328125 0 L 0.109375 0 C 0.109375 -0.0507812 0.109375 -0.117188 0.109375 -0.203125 L 0.109375 -1.1875 L 0.34375 -1.1875 L 0.34375 -0.71875 C 0.394531 -0.820312 0.488281 -0.875 0.625 -0.875 C 0.726562 -0.875 0.804688 -0.835938 0.859375 -0.765625 C 0.910156 -0.691406 0.9375 -0.582031 0.9375 -0.4375 Z M 0.703125 -0.4375 C 0.703125 -0.53125 0.6875 -0.601562 0.65625 -0.65625 C 0.632812 -0.707031 0.59375 -0.734375 0.53125 -0.734375 C 0.46875 -0.734375 0.421875 -0.707031 0.390625 -0.65625 C 0.359375 -0.601562 0.34375 -0.523438 0.34375 -0.421875 C 0.34375 -0.335938 0.359375 -0.269531 0.390625 -0.21875 C 0.421875 -0.164062 0.46875 -0.140625 0.53125 -0.140625 C 0.644531 -0.140625 0.703125 -0.238281 0.703125 -0.4375 Z M 0.703125 -0.4375 "/></g></g></g><g fill="#000000" fill-opacity="1"><g transform="translate(117.226604, 250.891443)"><g><path d="M 0.234375 0.34375 C 0.171875 0.34375 0.117188 0.335938 0.078125 0.328125 L 0.078125 0.171875 C 0.109375 0.171875 0.140625 0.171875 0.171875 0.171875 C 0.203125 0.171875 0.226562 0.164062 0.25 0.15625 C 0.269531 0.144531 0.285156 0.128906 0.296875 0.109375 C 0.316406 0.0859375 0.335938 0.046875 0.359375 -0.015625 L 0.015625 -0.859375 L 0.25 -0.859375 L 0.390625 -0.453125 C 0.410156 -0.398438 0.4375 -0.3125 0.46875 -0.1875 L 0.5 -0.265625 L 0.546875 -0.453125 L 0.671875 -0.859375 L 0.90625 -0.859375 L 0.5625 0.046875 C 0.519531 0.160156 0.472656 0.238281 0.421875 0.28125 C 0.367188 0.320312 0.304688 0.34375 0.234375 0.34375 Z M 0.234375 0.34375 "/></g></g></g><g fill="#000000" fill-opacity="1"><g transform="translate(118.144885, 250.891443)"><g/></g></g><g fill="#000000" fill-opacity="1"><g transform="translate(118.603605, 250.891443)"><g><path d="M 1.046875 -0.328125 C 1.046875 -0.210938 1.003906 -0.125 0.921875 -0.0625 C 0.835938 -0.0078125 0.710938 0.015625 0.546875 0.015625 C 0.398438 0.015625 0.285156 -0.0078125 0.203125 -0.0625 C 0.117188 -0.113281 0.0664062 -0.191406 0.046875 -0.296875 L 0.28125 -0.328125 C 0.289062 -0.265625 0.316406 -0.21875 0.359375 -0.1875 C 0.410156 -0.164062 0.476562 -0.15625 0.5625 -0.15625 C 0.726562 -0.15625 0.8125 -0.207031 0.8125 -0.3125 C 0.8125 -0.34375 0.800781 -0.367188 0.78125 -0.390625 C 0.757812 -0.410156 0.726562 -0.425781 0.6875 -0.4375 C 0.65625 -0.457031 0.59375 -0.476562 0.5 -0.5 C 0.414062 -0.507812 0.351562 -0.519531 0.3125 -0.53125 C 0.28125 -0.550781 0.25 -0.566406 0.21875 -0.578125 C 0.195312 -0.597656 0.175781 -0.617188 0.15625 -0.640625 C 0.132812 -0.660156 0.117188 -0.6875 0.109375 -0.71875 C 0.0976562 -0.75 0.09375 -0.785156 0.09375 -0.828125 C 0.09375 -0.929688 0.128906 -1.007812 0.203125 -1.0625 C 0.285156 -1.113281 0.40625 -1.140625 0.5625 -1.140625 C 0.695312 -1.140625 0.800781 -1.117188 0.875 -1.078125 C 0.945312 -1.035156 0.992188 -0.960938 1.015625 -0.859375 L 0.78125 -0.828125 C 0.769531 -0.878906 0.742188 -0.914062 0.703125 -0.9375 C 0.671875 -0.96875 0.617188 -0.984375 0.546875 -0.984375 C 0.398438 -0.984375 0.328125 -0.9375 0.328125 -0.84375 C 0.328125 -0.8125 0.332031 -0.785156 0.34375 -0.765625 C 0.363281 -0.753906 0.390625 -0.738281 0.421875 -0.71875 C 0.453125 -0.707031 0.515625 -0.691406 0.609375 -0.671875 C 0.710938 -0.648438 0.785156 -0.628906 0.828125 -0.609375 C 0.878906 -0.585938 0.921875 -0.5625 0.953125 -0.53125 C 0.984375 -0.507812 1.003906 -0.476562 1.015625 -0.4375 C 1.035156 -0.40625 1.046875 -0.367188 1.046875 -0.328125 Z M 1.046875 -0.328125 "/></g></g></g><g fill="#000000" fill-opacity="1"><g transform="translate(119.704928, 250.891443)"><g><path d="M 1.125 -0.328125 C 1.125 -0.222656 1.082031 -0.140625 1 -0.078125 C 0.925781 -0.0234375 0.820312 0 0.6875 0 L 0.109375 0 L 0.109375 -1.125 L 0.625 -1.125 C 0.769531 -1.125 0.878906 -1.097656 0.953125 -1.046875 C 1.023438 -1.003906 1.0625 -0.9375 1.0625 -0.84375 C 1.0625 -0.78125 1.039062 -0.722656 1 -0.671875 C 0.96875 -0.628906 0.914062 -0.601562 0.84375 -0.59375 C 0.925781 -0.582031 0.992188 -0.550781 1.046875 -0.5 C 1.097656 -0.457031 1.125 -0.398438 1.125 -0.328125 Z M 0.8125 -0.8125 C 0.8125 -0.863281 0.796875 -0.898438 0.765625 -0.921875 C 0.734375 -0.941406 0.6875 -0.953125 0.625 -0.953125 L 0.34375 -0.953125 L 0.34375 -0.671875 L 0.625 -0.671875 C 0.6875 -0.671875 0.734375 -0.679688 0.765625 -0.703125 C 0.796875 -0.734375 0.8125 -0.769531 0.8125 -0.8125 Z M 0.875 -0.34375 C 0.875 -0.445312 0.800781 -0.5 0.65625 -0.5 L 0.34375 -0.5 L 0.34375 -0.171875 L 0.65625 -0.171875 C 0.738281 -0.171875 0.796875 -0.1875 0.828125 -0.21875 C 0.859375 -0.25 0.875 -0.289062 0.875 -0.34375 Z M 0.875 -0.34375 "/></g></g></g><g fill="#000000" fill-opacity="1"><g transform="translate(120.897332, 250.891443)"><g><path d="M 0.625 -0.953125 L 0.625 0 L 0.390625 0 L 0.390625 -0.953125 L 0.015625 -0.953125 L 0.015625 -1.125 L 1 -1.125 L 1 -0.953125 Z M 0.625 -0.953125 "/></g></g></g><g fill="#000000" fill-opacity="1"><g transform="translate(121.905937, 250.891443)"><g><path d="M 1.046875 -0.328125 C 1.046875 -0.210938 1.003906 -0.125 0.921875 -0.0625 C 0.835938 -0.0078125 0.710938 0.015625 0.546875 0.015625 C 0.398438 0.015625 0.285156 -0.0078125 0.203125 -0.0625 C 0.117188 -0.113281 0.0664062 -0.191406 0.046875 -0.296875 L 0.28125 -0.328125 C 0.289062 -0.265625 0.316406 -0.21875 0.359375 -0.1875 C 0.410156 -0.164062 0.476562 -0.15625 0.5625 -0.15625 C 0.726562 -0.15625 0.8125 -0.207031 0.8125 -0.3125 C 0.8125 -0.34375 0.800781 -0.367188 0.78125 -0.390625 C 0.757812 -0.410156 0.726562 -0.425781 0.6875 -0.4375 C 0.65625 -0.457031 0.59375 -0.476562 0.5 -0.5 C 0.414062 -0.507812 0.351562 -0.519531 0.3125 -0.53125 C 0.28125 -0.550781 0.25 -0.566406 0.21875 -0.578125 C 0.195312 -0.597656 0.175781 -0.617188 0.15625 -0.640625 C 0.132812 -0.660156 0.117188 -0.6875 0.109375 -0.71875 C 0.0976562 -0.75 0.09375 -0.785156 0.09375 -0.828125 C 0.09375 -0.929688 0.128906 -1.007812 0.203125 -1.0625 C 0.285156 -1.113281 0.40625 -1.140625 0.5625 -1.140625 C 0.695312 -1.140625 0.800781 -1.117188 0.875 -1.078125 C 0.945312 -1.035156 0.992188 -0.960938 1.015625 -0.859375 L 0.78125 -0.828125 C 0.769531 -0.878906 0.742188 -0.914062 0.703125 -0.9375 C 0.671875 -0.96875 0.617188 -0.984375 0.546875 -0.984375 C 0.398438 -0.984375 0.328125 -0.9375 0.328125 -0.84375 C 0.328125 -0.8125 0.332031 -0.785156 0.34375 -0.765625 C 0.363281 -0.753906 0.390625 -0.738281 0.421875 -0.71875 C 0.453125 -0.707031 0.515625 -0.691406 0.609375 -0.671875 C 0.710938 -0.648438 0.785156 -0.628906 0.828125 -0.609375 C 0.878906 -0.585938 0.921875 -0.5625 0.953125 -0.53125 C 0.984375 -0.507812 1.003906 -0.476562 1.015625 -0.4375 C 1.035156 -0.40625 1.046875 -0.367188 1.046875 -0.328125 Z M 1.046875 -0.328125 "/></g></g></g><g clip-path="url(#e98d995480)"><g fill="#000000" fill-opacity="1"><g transform="translate(109.611026, 252.563286)"><g><path d="M 0.375 -0.71875 L 0.375 0 L 0.15625 0 L 0.15625 -0.71875 L 0.03125 -0.71875 L 0.03125 -0.859375 L 0.15625 -0.859375 L 0.15625 -0.953125 C 0.15625 -1.035156 0.175781 -1.09375 0.21875 -1.125 C 0.257812 -1.164062 0.320312 -1.1875 0.40625 -1.1875 C 0.445312 -1.1875 0.5 -1.179688 0.5625 -1.171875 L 0.5625 -1.03125 C 0.53125 -1.03125 0.503906 -1.03125 0.484375 -1.03125 C 0.453125 -1.03125 0.425781 -1.023438 0.40625 -1.015625 C 0.382812 -1.003906 0.375 -0.976562 0.375 -0.9375 L 0.375 -0.859375 L 0.5625 -0.859375 L 0.5625 -0.71875 Z M 0.375 -0.71875 "/></g></g></g></g><g fill="#000000" fill-opacity="1"><g transform="translate(110.160869, 252.563286)"><g><path d="M 0.109375 0 L 0.109375 -0.65625 C 0.109375 -0.707031 0.109375 -0.75 0.109375 -0.78125 C 0.109375 -0.8125 0.109375 -0.835938 0.109375 -0.859375 L 0.328125 -0.859375 C 0.328125 -0.859375 0.328125 -0.832031 0.328125 -0.78125 C 0.335938 -0.726562 0.34375 -0.695312 0.34375 -0.6875 C 0.363281 -0.738281 0.378906 -0.773438 0.390625 -0.796875 C 0.410156 -0.828125 0.429688 -0.847656 0.453125 -0.859375 C 0.484375 -0.878906 0.515625 -0.890625 0.546875 -0.890625 C 0.578125 -0.890625 0.601562 -0.882812 0.625 -0.875 L 0.625 -0.6875 C 0.582031 -0.695312 0.546875 -0.703125 0.515625 -0.703125 C 0.460938 -0.703125 0.421875 -0.675781 0.390625 -0.625 C 0.359375 -0.582031 0.34375 -0.515625 0.34375 -0.421875 L 0.34375 0 Z M 0.109375 0 "/></g></g></g><g fill="#000000" fill-opacity="1"><g transform="translate(110.80343, 252.563286)"><g><path d="M 0.953125 -0.4375 C 0.953125 -0.289062 0.910156 -0.175781 0.828125 -0.09375 C 0.742188 -0.0195312 0.632812 0.015625 0.5 0.015625 C 0.363281 0.015625 0.253906 -0.0195312 0.171875 -0.09375 C 0.0976562 -0.175781 0.0625 -0.289062 0.0625 -0.4375 C 0.0625 -0.570312 0.0976562 -0.675781 0.171875 -0.75 C 0.253906 -0.832031 0.363281 -0.875 0.5 -0.875 C 0.644531 -0.875 0.753906 -0.835938 0.828125 -0.765625 C 0.910156 -0.691406 0.953125 -0.582031 0.953125 -0.4375 Z M 0.703125 -0.4375 C 0.703125 -0.539062 0.6875 -0.613281 0.65625 -0.65625 C 0.625 -0.707031 0.578125 -0.734375 0.515625 -0.734375 C 0.367188 -0.734375 0.296875 -0.632812 0.296875 -0.4375 C 0.296875 -0.34375 0.3125 -0.269531 0.34375 -0.21875 C 0.382812 -0.164062 0.4375 -0.140625 0.5 -0.140625 C 0.632812 -0.140625 0.703125 -0.238281 0.703125 -0.4375 Z M 0.703125 -0.4375 "/></g></g></g><g fill="#000000" fill-opacity="1"><g transform="translate(111.812035, 252.563286)"><g><path d="M 0.625 0 L 0.625 -0.484375 C 0.625 -0.640625 0.582031 -0.71875 0.5 -0.71875 C 0.445312 -0.71875 0.40625 -0.691406 0.375 -0.640625 C 0.351562 -0.597656 0.34375 -0.539062 0.34375 -0.46875 L 0.34375 0 L 0.109375 0 L 0.109375 -0.671875 C 0.109375 -0.722656 0.109375 -0.757812 0.109375 -0.78125 C 0.109375 -0.8125 0.109375 -0.835938 0.109375 -0.859375 L 0.328125 -0.859375 C 0.328125 -0.847656 0.328125 -0.820312 0.328125 -0.78125 C 0.335938 -0.738281 0.34375 -0.707031 0.34375 -0.6875 C 0.363281 -0.757812 0.394531 -0.8125 0.4375 -0.84375 C 0.476562 -0.875 0.53125 -0.890625 0.59375 -0.890625 C 0.726562 -0.890625 0.8125 -0.820312 0.84375 -0.6875 C 0.875 -0.757812 0.910156 -0.8125 0.953125 -0.84375 C 0.992188 -0.875 1.046875 -0.890625 1.109375 -0.890625 C 1.191406 -0.890625 1.253906 -0.859375 1.296875 -0.796875 C 1.347656 -0.742188 1.375 -0.660156 1.375 -0.546875 L 1.375 0 L 1.140625 0 L 1.140625 -0.484375 C 1.140625 -0.640625 1.097656 -0.71875 1.015625 -0.71875 C 0.972656 -0.71875 0.9375 -0.695312 0.90625 -0.65625 C 0.875 -0.613281 0.859375 -0.550781 0.859375 -0.46875 L 0.859375 0 Z M 0.625 0 "/></g></g></g><g fill="#000000" fill-opacity="1"><g transform="translate(113.2802, 252.563286)"><g/></g></g><g fill="#000000" fill-opacity="1"><g transform="translate(113.73892, 252.563286)"><g><path d="M 0.34375 0.015625 C 0.269531 0.015625 0.210938 0 0.171875 -0.03125 C 0.140625 -0.0703125 0.125 -0.128906 0.125 -0.203125 L 0.125 -0.71875 L 0.015625 -0.71875 L 0.015625 -0.859375 L 0.140625 -0.859375 L 0.21875 -1.0625 L 0.359375 -1.0625 L 0.359375 -0.859375 L 0.515625 -0.859375 L 0.515625 -0.71875 L 0.359375 -0.71875 L 0.359375 -0.265625 C 0.359375 -0.222656 0.363281 -0.191406 0.375 -0.171875 C 0.394531 -0.148438 0.421875 -0.140625 0.453125 -0.140625 C 0.472656 -0.140625 0.5 -0.144531 0.53125 -0.15625 L 0.53125 -0.015625 C 0.476562 0.00390625 0.414062 0.015625 0.34375 0.015625 Z M 0.34375 0.015625 "/></g></g></g><g fill="#000000" fill-opacity="1"><g transform="translate(114.288763, 252.563286)"><g><path d="M 0.34375 -0.6875 C 0.375 -0.757812 0.410156 -0.804688 0.453125 -0.828125 C 0.503906 -0.859375 0.5625 -0.875 0.625 -0.875 C 0.71875 -0.875 0.785156 -0.847656 0.828125 -0.796875 C 0.878906 -0.742188 0.90625 -0.660156 0.90625 -0.546875 L 0.90625 0 L 0.6875 0 L 0.6875 -0.484375 C 0.6875 -0.640625 0.632812 -0.71875 0.53125 -0.71875 C 0.46875 -0.71875 0.421875 -0.691406 0.390625 -0.640625 C 0.359375 -0.597656 0.34375 -0.539062 0.34375 -0.46875 L 0.34375 0 L 0.109375 0 L 0.109375 -1.1875 L 0.34375 -1.1875 L 0.34375 -0.859375 C 0.34375 -0.804688 0.34375 -0.75 0.34375 -0.6875 Z M 0.34375 -0.6875 "/></g></g></g><g fill="#000000" fill-opacity="1"><g transform="translate(115.297368, 252.563286)"><g><path d="M 0.46875 0.015625 C 0.34375 0.015625 0.242188 -0.0195312 0.171875 -0.09375 C 0.0976562 -0.175781 0.0625 -0.289062 0.0625 -0.4375 C 0.0625 -0.582031 0.0976562 -0.691406 0.171875 -0.765625 C 0.242188 -0.835938 0.347656 -0.875 0.484375 -0.875 C 0.609375 -0.875 0.703125 -0.832031 0.765625 -0.75 C 0.828125 -0.675781 0.859375 -0.554688 0.859375 -0.390625 L 0.296875 -0.390625 C 0.296875 -0.304688 0.3125 -0.242188 0.34375 -0.203125 C 0.375 -0.160156 0.421875 -0.140625 0.484375 -0.140625 C 0.566406 -0.140625 0.617188 -0.171875 0.640625 -0.234375 L 0.859375 -0.21875 C 0.796875 -0.0625 0.664062 0.015625 0.46875 0.015625 Z M 0.46875 -0.734375 C 0.414062 -0.734375 0.375 -0.710938 0.34375 -0.671875 C 0.320312 -0.640625 0.3125 -0.59375 0.3125 -0.53125 L 0.640625 -0.53125 C 0.640625 -0.601562 0.625 -0.65625 0.59375 -0.6875 C 0.5625 -0.71875 0.519531 -0.734375 0.46875 -0.734375 Z M 0.46875 -0.734375 "/></g></g></g><g fill="#000000" fill-opacity="1"><g transform="translate(116.215648, 252.563286)"><g/></g></g><g fill="#000000" fill-opacity="1"><g transform="translate(116.674368, 252.563286)"><g><path d="M 0.796875 0 L 0.3125 -0.875 C 0.320312 -0.789062 0.328125 -0.722656 0.328125 -0.671875 L 0.328125 0 L 0.109375 0 L 0.109375 -1.125 L 0.390625 -1.125 L 0.890625 -0.25 C 0.878906 -0.332031 0.875 -0.40625 0.875 -0.46875 L 0.875 -1.125 L 1.078125 -1.125 L 1.078125 0 Z M 0.796875 0 "/></g></g></g><g fill="#000000" fill-opacity="1"><g transform="translate(117.866772, 252.563286)"><g><path d="M 0.953125 -0.4375 C 0.953125 -0.289062 0.910156 -0.175781 0.828125 -0.09375 C 0.742188 -0.0195312 0.632812 0.015625 0.5 0.015625 C 0.363281 0.015625 0.253906 -0.0195312 0.171875 -0.09375 C 0.0976562 -0.175781 0.0625 -0.289062 0.0625 -0.4375 C 0.0625 -0.570312 0.0976562 -0.675781 0.171875 -0.75 C 0.253906 -0.832031 0.363281 -0.875 0.5 -0.875 C 0.644531 -0.875 0.753906 -0.835938 0.828125 -0.765625 C 0.910156 -0.691406 0.953125 -0.582031 0.953125 -0.4375 Z M 0.703125 -0.4375 C 0.703125 -0.539062 0.6875 -0.613281 0.65625 -0.65625 C 0.625 -0.707031 0.578125 -0.734375 0.515625 -0.734375 C 0.367188 -0.734375 0.296875 -0.632812 0.296875 -0.4375 C 0.296875 -0.34375 0.3125 -0.269531 0.34375 -0.21875 C 0.382812 -0.164062 0.4375 -0.140625 0.5 -0.140625 C 0.632812 -0.140625 0.703125 -0.238281 0.703125 -0.4375 Z M 0.703125 -0.4375 "/></g></g></g><g fill="#000000" fill-opacity="1"><g transform="translate(118.875377, 252.563286)"><g><path d="M 0.328125 -0.859375 L 0.328125 -0.375 C 0.328125 -0.226562 0.378906 -0.15625 0.484375 -0.15625 C 0.535156 -0.15625 0.578125 -0.175781 0.609375 -0.21875 C 0.648438 -0.269531 0.671875 -0.332031 0.671875 -0.40625 L 0.671875 -0.859375 L 0.890625 -0.859375 L 0.890625 -0.1875 C 0.890625 -0.113281 0.894531 -0.0507812 0.90625 0 L 0.6875 0 C 0.675781 -0.0703125 0.671875 -0.128906 0.671875 -0.171875 C 0.640625 -0.109375 0.597656 -0.0625 0.546875 -0.03125 C 0.503906 0 0.453125 0.015625 0.390625 0.015625 C 0.296875 0.015625 0.222656 -0.0078125 0.171875 -0.0625 C 0.128906 -0.125 0.109375 -0.207031 0.109375 -0.3125 L 0.109375 -0.859375 Z M 0.328125 -0.859375 "/></g></g></g><g fill="#000000" fill-opacity="1"><g transform="translate(119.883982, 252.563286)"><g><path d="M 0.6875 0 L 0.6875 -0.484375 C 0.6875 -0.640625 0.632812 -0.71875 0.53125 -0.71875 C 0.46875 -0.71875 0.421875 -0.691406 0.390625 -0.640625 C 0.359375 -0.597656 0.34375 -0.539062 0.34375 -0.46875 L 0.34375 0 L 0.109375 0 L 0.109375 -0.671875 C 0.109375 -0.722656 0.109375 -0.757812 0.109375 -0.78125 C 0.109375 -0.8125 0.109375 -0.835938 0.109375 -0.859375 L 0.328125 -0.859375 C 0.328125 -0.847656 0.328125 -0.820312 0.328125 -0.78125 C 0.335938 -0.738281 0.34375 -0.707031 0.34375 -0.6875 C 0.375 -0.757812 0.410156 -0.8125 0.453125 -0.84375 C 0.503906 -0.875 0.5625 -0.890625 0.625 -0.890625 C 0.71875 -0.890625 0.785156 -0.859375 0.828125 -0.796875 C 0.878906 -0.742188 0.90625 -0.660156 0.90625 -0.546875 L 0.90625 0 Z M 0.6875 0 "/></g></g></g><g fill="#000000" fill-opacity="1"><g transform="translate(120.892587, 252.563286)"><g/></g></g><g fill="#000000" fill-opacity="1"><g transform="translate(121.351307, 252.563286)"><g><path d="M 1.046875 -0.765625 C 1.046875 -0.691406 1.03125 -0.625 1 -0.5625 C 0.96875 -0.507812 0.921875 -0.46875 0.859375 -0.4375 C 0.796875 -0.40625 0.71875 -0.390625 0.625 -0.390625 L 0.34375 -0.390625 L 0.34375 0 L 0.109375 0 L 0.109375 -1.125 L 0.625 -1.125 C 0.757812 -1.125 0.863281 -1.09375 0.9375 -1.03125 C 1.007812 -0.96875 1.046875 -0.878906 1.046875 -0.765625 Z M 0.8125 -0.765625 C 0.8125 -0.878906 0.738281 -0.9375 0.59375 -0.9375 L 0.34375 -0.9375 L 0.34375 -0.578125 L 0.609375 -0.578125 C 0.671875 -0.578125 0.71875 -0.59375 0.75 -0.625 C 0.789062 -0.65625 0.8125 -0.703125 0.8125 -0.765625 Z M 0.8125 -0.765625 "/></g></g></g><g fill="#000000" fill-opacity="1"><g transform="translate(122.45263, 252.563286)"><g><path d="M 0.109375 0 L 0.109375 -0.65625 C 0.109375 -0.707031 0.109375 -0.75 0.109375 -0.78125 C 0.109375 -0.8125 0.109375 -0.835938 0.109375 -0.859375 L 0.328125 -0.859375 C 0.328125 -0.859375 0.328125 -0.832031 0.328125 -0.78125 C 0.335938 -0.726562 0.34375 -0.695312 0.34375 -0.6875 C 0.363281 -0.738281 0.378906 -0.773438 0.390625 -0.796875 C 0.410156 -0.828125 0.429688 -0.847656 0.453125 -0.859375 C 0.484375 -0.878906 0.515625 -0.890625 0.546875 -0.890625 C 0.578125 -0.890625 0.601562 -0.882812 0.625 -0.875 L 0.625 -0.6875 C 0.582031 -0.695312 0.546875 -0.703125 0.515625 -0.703125 C 0.460938 -0.703125 0.421875 -0.675781 0.390625 -0.625 C 0.359375 -0.582031 0.34375 -0.515625 0.34375 -0.421875 L 0.34375 0 Z M 0.109375 0 "/></g></g></g><g fill="#000000" fill-opacity="1"><g transform="translate(123.095191, 252.563286)"><g><path d="M 0.953125 -0.4375 C 0.953125 -0.289062 0.910156 -0.175781 0.828125 -0.09375 C 0.742188 -0.0195312 0.632812 0.015625 0.5 0.015625 C 0.363281 0.015625 0.253906 -0.0195312 0.171875 -0.09375 C 0.0976562 -0.175781 0.0625 -0.289062 0.0625 -0.4375 C 0.0625 -0.570312 0.0976562 -0.675781 0.171875 -0.75 C 0.253906 -0.832031 0.363281 -0.875 0.5 -0.875 C 0.644531 -0.875 0.753906 -0.835938 0.828125 -0.765625 C 0.910156 -0.691406 0.953125 -0.582031 0.953125 -0.4375 Z M 0.703125 -0.4375 C 0.703125 -0.539062 0.6875 -0.613281 0.65625 -0.65625 C 0.625 -0.707031 0.578125 -0.734375 0.515625 -0.734375 C 0.367188 -0.734375 0.296875 -0.632812 0.296875 -0.4375 C 0.296875 -0.34375 0.3125 -0.269531 0.34375 -0.21875 C 0.382812 -0.164062 0.4375 -0.140625 0.5 -0.140625 C 0.632812 -0.140625 0.703125 -0.238281 0.703125 -0.4375 Z M 0.703125 -0.4375 "/></g></g></g><g fill="#000000" fill-opacity="1"><g transform="translate(124.103796, 252.563286)"><g><path d="M 0.109375 -1.015625 L 0.109375 -1.1875 L 0.34375 -1.1875 L 0.34375 -1.015625 Z M 0.109375 0.34375 C 0.0546875 0.34375 0.0078125 0.335938 -0.03125 0.328125 L -0.03125 0.171875 L 0.015625 0.171875 C 0.0546875 0.171875 0.0820312 0.160156 0.09375 0.140625 C 0.101562 0.128906 0.109375 0.0976562 0.109375 0.046875 L 0.109375 -0.859375 L 0.34375 -0.859375 L 0.34375 0.109375 C 0.34375 0.179688 0.320312 0.238281 0.28125 0.28125 C 0.238281 0.320312 0.179688 0.34375 0.109375 0.34375 Z M 0.109375 0.34375 "/></g></g></g><g fill="#000000" fill-opacity="1"><g transform="translate(124.562516, 252.563286)"><g><path d="M 0.46875 0.015625 C 0.34375 0.015625 0.242188 -0.0195312 0.171875 -0.09375 C 0.0976562 -0.175781 0.0625 -0.289062 0.0625 -0.4375 C 0.0625 -0.582031 0.0976562 -0.691406 0.171875 -0.765625 C 0.242188 -0.835938 0.347656 -0.875 0.484375 -0.875 C 0.609375 -0.875 0.703125 -0.832031 0.765625 -0.75 C 0.828125 -0.675781 0.859375 -0.554688 0.859375 -0.390625 L 0.296875 -0.390625 C 0.296875 -0.304688 0.3125 -0.242188 0.34375 -0.203125 C 0.375 -0.160156 0.421875 -0.140625 0.484375 -0.140625 C 0.566406 -0.140625 0.617188 -0.171875 0.640625 -0.234375 L 0.859375 -0.21875 C 0.796875 -0.0625 0.664062 0.015625 0.46875 0.015625 Z M 0.46875 -0.734375 C 0.414062 -0.734375 0.375 -0.710938 0.34375 -0.671875 C 0.320312 -0.640625 0.3125 -0.59375 0.3125 -0.53125 L 0.640625 -0.53125 C 0.640625 -0.601562 0.625 -0.65625 0.59375 -0.6875 C 0.5625 -0.71875 0.519531 -0.734375 0.46875 -0.734375 Z M 0.46875 -0.734375 "/></g></g></g><g fill="#000000" fill-opacity="1"><g transform="translate(125.480797, 252.563286)"><g><path d="M 0.484375 0.015625 C 0.347656 0.015625 0.242188 -0.0195312 0.171875 -0.09375 C 0.0976562 -0.175781 0.0625 -0.285156 0.0625 -0.421875 C 0.0625 -0.566406 0.0976562 -0.675781 0.171875 -0.75 C 0.242188 -0.832031 0.347656 -0.875 0.484375 -0.875 C 0.585938 -0.875 0.671875 -0.847656 0.734375 -0.796875 C 0.804688 -0.753906 0.847656 -0.6875 0.859375 -0.59375 L 0.640625 -0.578125 C 0.628906 -0.628906 0.609375 -0.664062 0.578125 -0.6875 C 0.554688 -0.71875 0.523438 -0.734375 0.484375 -0.734375 C 0.359375 -0.734375 0.296875 -0.632812 0.296875 -0.4375 C 0.296875 -0.238281 0.359375 -0.140625 0.484375 -0.140625 C 0.523438 -0.140625 0.5625 -0.148438 0.59375 -0.171875 C 0.625 -0.203125 0.640625 -0.242188 0.640625 -0.296875 L 0.875 -0.28125 C 0.863281 -0.226562 0.835938 -0.175781 0.796875 -0.125 C 0.765625 -0.0820312 0.722656 -0.046875 0.671875 -0.015625 C 0.617188 0.00390625 0.554688 0.015625 0.484375 0.015625 Z M 0.484375 0.015625 "/></g></g></g><g fill="#000000" fill-opacity="1"><g transform="translate(126.399077, 252.563286)"><g><path d="M 0.34375 0.015625 C 0.269531 0.015625 0.210938 0 0.171875 -0.03125 C 0.140625 -0.0703125 0.125 -0.128906 0.125 -0.203125 L 0.125 -0.71875 L 0.015625 -0.71875 L 0.015625 -0.859375 L 0.140625 -0.859375 L 0.21875 -1.0625 L 0.359375 -1.0625 L 0.359375 -0.859375 L 0.515625 -0.859375 L 0.515625 -0.71875 L 0.359375 -0.71875 L 0.359375 -0.265625 C 0.359375 -0.222656 0.363281 -0.191406 0.375 -0.171875 C 0.394531 -0.148438 0.421875 -0.140625 0.453125 -0.140625 C 0.472656 -0.140625 0.5 -0.144531 0.53125 -0.15625 L 0.53125 -0.015625 C 0.476562 0.00390625 0.414062 0.015625 0.34375 0.015625 Z M 0.34375 0.015625 "/></g></g></g></svg>